# xmcd CD database file
#
# Track frame offsets:
#	150
#	20597
#	31279
#	53195
#	67204
#	87061
#	100719
#	120372
#	135588
#	159465
#	172424
#	186427
#	198046
#	219796
#	240205
#	257944
#	272778
#	284630
#	302800
#	320228
#	336431
#
# Disc length: 4654 seconds
#
# Revision: 0
# Processed by: cddbd v1.5.1PL0 Copyright (c) Steve Scherf et al.
# Submitted via: CDex 1.51
#
DISCID=3a122c15
DTITLE=Willie Nelson - Greatest Hits
DYEAR=2004
DGENRE=Country
TTITLE0=Angel Flying too Close to the Ground
TTITLE1=Blue Eyes Crying In The Rain
TTITLE2=City of New Orleans
TTITLE3=Funny how time slips away
TTITLE4=Georgia on My Mind
TTITLE5=Good-Hearted Woman
TTITLE6=Last Thing I Needed First Thing This Morning
TTITLE7=Mamas Don't Let Your Babies Gr
TTITLE8=Me and Bobby McGee
TTITLE9=Midnight Rider
TTITLE10=My Heroes Have Always Been
TTITLE11=On The Road Again
TTITLE12=Poncho and Lefty
TTITLE13=Rainbow Connection
TTITLE14=Seven Spanish Angel
TTITLE15=She's Not For You
TTITLE16=Stay All Night
TTITLE17=Take the Ribbon From Your Hair
TTITLE18=There Shall Be Showers of Bles
TTITLE19=To All the Girls I've Loved Be
TTITLE20=Turn Out The Lights
EXTD=YEAR: 2004
EXTT0=
EXTT1=
EXTT2=
EXTT3=
EXTT4=
EXTT5=
EXTT6=
EXTT7=
EXTT8=
EXTT9=
EXTT10=
EXTT11=
EXTT12=
EXTT13=
EXTT14=
EXTT15=
EXTT16=
EXTT17=
EXTT18=
EXTT19=
EXTT20=
PLAYORDER=
